<?xml version="1.0" encoding="utf-8"?>
<!-- Generator: Adobe Illustrator 27.2.0, SVG Export Plug-In . SVG Version: 6.00 Build 0)  -->
<svg version="1.1" id="Layer_1" xmlns="http://www.w3.org/2000/svg" xmlns:xlink="http://www.w3.org/1999/xlink" x="0px" y="0px"
	 viewBox="0 0 512 512" style="enable-background:new 0 0 512 512;" xml:space="preserve">
<style type="text/css">
	.st0{fill:#515151;stroke:#515151;stroke-width:6.2565;stroke-miterlimit:10;}
	.st1{fill:#D63447;}
</style>
<path class="st0" d="M372.3,3.7c1.3,1.7,3,3.1,3.8,5c2,5.5-1.8,9.8-8.6,9.8c-33.4,0-66.6,0-100,0c-7.9,0-15.3,1.5-22.1,5.6
	c-12.7,7.7-19.9,19-20,34c-0.2,27.7-0.1,55.5,0,83.3c0,1.8,1.3,4.1,2.7,5.2c11.6,9.7,17.2,22.1,17.1,37.1c0,25.7,0.1,51.2-0.1,76.9
	c0,3.4,0.8,5.8,4.3,6.6c6,1.3,12.1,3.3,18.2,3.4c28.4,0.4,56.8,0.1,85.2,0.2c8.3,0,10.4,2.2,10.5,10.5c0,8,0,16.1,0,25.2
	c2.1-1.5,3.4-2.4,4.8-3.4c12.5-9.6,25.1-19.1,37.5-28.8c3.3-2.6,6.7-3.8,10.8-3.5c6.4,0.2,12.8,0.1,19.2,0
	c25.1-0.1,42.3-17.3,42.4-42.4c0.1-42.8,0-85.4,0-128.2c0-13.1,0.1-26.3,0-39.4C478,35.9,460.8,18.7,436,18.6
	c-5.6,0-11.2-0.1-16.8,0c-4.1,0.1-8.1,0.1-9.9-4.5c-1.7-4.3,0.4-7.5,3.5-10.3c10.5,0,21.1,0,31.6,0C448.7,5,453,6,457,7.4
	c21.2,7.8,35.7,27.7,35.8,50.2c0.2,58,0.3,116,0,173.9c-0.2,29.4-24,52.7-54,53.8c-0.9,0-2,0.2-2.9,0c-14.5-2.3-26.1,2.6-36.9,12.3
	c-11.5,10.2-24.4,18.9-36.6,28.4c-2.9,2.2-5.7,3.9-9.5,2c-3.6-1.8-4.3-4.9-4.3-8.7c0.1-11.2,0-22.3,0-33.5
	c-34.6-2.4-68.9,2.7-103.1-3.4c0,11.9,0,24.2,0,37.1c2,0,3.8,0,5.5,0c19.1,0,38.2,0,57.1,0c23.1,0.1,37.1,14.1,37.1,37.1
	c0,10.3,0,20.8,0,31.1c0,6.5-2.4,9.4-7.5,9.3c-4.9-0.1-7.2-2.8-7.2-9.1c-0.1-10.6,0-21.4,0-32c-0.1-14-7.7-21.6-21.8-21.6
	c-30.6-0.1-61.1-0.1-91.7,0c-14.1,0-21.6,7.6-21.6,21.7c-0.1,30.3-0.1,60.8,0,91.1c0,14,7.7,21.6,21.7,21.6c15.7,0,31.5,0,47.3,0
	c8.3,0,10.5,2.1,10.5,10.4c0,1.8,0,3.5,0,6.6c5.9-4.5,11.3-8.2,16.2-12.4c4-3.3,8.1-5.2,13.5-4.6c2.4,0.3,4.9,0.1,7.4,0
	c9.5-0.4,17.2-7.5,18.1-16.9c0.5-4.9,0.2-9.8,0.4-14.8c0.2-5.3,2.7-7.8,7.5-7.8c4.5,0.1,7.2,2.6,7.1,7.6c-0.1,7.2,0.2,14.6-1.4,21.5
	c-3.4,14.9-16.8,25.2-32,25c-7.1-0.1-12.5,1.8-17.7,6.4c-6.5,5.6-13.5,10.5-20.2,15.7c-2.7,2.1-5.5,3.6-9.1,1.9
	c-3.6-1.8-4.7-4.8-4.6-8.4c0.1-4.9,0-9.8,0-15.3c-4.5,0-8.4,0-12.5,0c-10.5,0-21.1,0-31.5,0c-20.8-0.1-35.2-14.4-35.5-35.3
	c-0.2-25.1,0-50.3-0.1-75.4c0-1.8,0-3.5,0-6.5c-4.8,3.6-8.7,6.6-12.5,9.5c-7.8,6-15.6,12-23.4,18c-2.8,2.2-5.6,3.3-9.1,1.7
	c-3.4-1.7-4.3-4.6-4.3-8.1c0.1-8.3,0-16.7,0-25.7c-2.5,0-4.5,0-6.4,0c-19.5,0-39.1,0.1-58.6,0c-24.3,0.1-42.3-14.4-46.6-36.9
	c-0.5-2.7-0.6-5.5-0.6-8.3c0-24.2,0-48.3,0-72.5c0-5.8,2-8.3,6.5-8.8c5.2-0.5,8.2,2.5,8.3,8.6c0.1,11.1,0,22,0,33.1
	c0,12.6,0,25.3,0,38c0.1,19.8,12.4,32.4,32.2,32.5c22.8,0.1,45.7,0,68.5,0c9.7,0,11.5,1.8,11.5,11.6c0,4.7,0,9.4,0,15
	c1.9-1.3,3.1-2,4.3-2.8c6.3-4.8,12.5-9.6,18.8-14.5c6.4-4.9,12.3-9.7,15.5-18c4.6-11.6,14.8-17.7,27.4-18.6
	c5.8-0.4,11.8-0.1,18.1-0.1c0-2.8,0-4.7,0-6.7c0-42.8,0-85.4,0-128.2c0-21.2-12.4-33.6-33.8-33.6c-43.1,0-86.1,0.4-129.1-0.2
	c-19.1-0.2-34.8,13.8-33.5,33.5c0.3,4,0.1,7.9,0,11.8c-0.1,5.5-2.8,8.3-7.6,8.2c-4.7-0.1-7.2-2.7-7.1-8.1c0.1-8-0.4-16.3,1-24.1
	c3.9-20.6,21.9-35.8,43-35.9c46-0.3,92-0.1,138-0.1c2.7,0,5.5,0.5,8.9,0.8c0.1-1.9,0.2-3.5,0.2-5.3c0-23.4,0-46.6,0-70
	c0-31.2,16.8-51.7,47.2-58.1c0.4-0.1,0.8-0.4,1.3-0.6C296.7,3.7,334.5,3.7,372.3,3.7z"/>
<path class="st1" d="M157.6,242.3c-1,5.9-2,11.6-3.1,18.1c5.5,0,10.6,0,15.8,0c3.8,0,7.6-0.1,11.4,0.1c4.6,0.3,7.2,2.9,7.4,7
	c0.1,4.3-2.6,7.4-7.3,7.6c-8.3,0.2-16.8,0.2-25.1,0.1c-3.4-0.1-4.9,0.8-5.3,4.5c-0.8,7.3-2.3,14.6-3.6,21.8
	c-0.9,4.9-4.3,7.4-8.7,6.7c-4.2-0.7-6.7-4.5-5.9-9.3c1.1-7.3,2.4-14.6,3.5-21.9c0-0.3,0-0.6-0.1-1.5c-5.5,0-11.2,0-17.3,0
	c-1.4,8-2.8,16.3-4.2,24.4c-1,6-4.2,8.9-9,8.1c-4.6-0.8-6.7-4.7-5.6-10.7c1.1-7.1,2.4-14.2,3.8-22.2c-5.2,0-10,0-14.9,0
	c-2.3,0-4.6,0.1-6.9-0.1c-4.7-0.4-7.5-3.4-7.3-7.6c0.1-4,2.9-6.8,7.4-7c6.3-0.2,12.5-0.3,18.7,0c4,0.2,6-0.6,6.3-5.1
	c0.2-4.2,1.3-8.3,2-13.1c-9.2,0-17.6,0.1-26.2,0c-5.1-0.1-8.1-2.8-8.2-7.2c-0.1-4.5,3.1-7.5,8.4-7.5c9.4-0.1,18.7,0,28.5,0
	c1.4-7.8,2.6-15.4,3.9-22.9c0.2-1.5,0.4-2.9,0.8-4.4c1.3-4.3,4.4-6.4,8.4-5.5c4.3,0.8,6.3,3.8,5.7,7.8c-0.6,5.8-1.8,11.7-2.7,17.5
	c-0.3,2.3-0.7,4.5-1,7.2c5.9,0,11.6,0,17.6,0c1.1-7,2.4-14.1,3.5-21.2c0.3-1.8,0.5-3.5,0.9-5.3c1-4.5,4.4-6.8,8.7-6
	c4.1,0.7,6.5,4.3,5.8,8.9c-1.1,7.7-2.5,15.5-4,24.1c6.9,0,13.5-0.2,19.9,0.1c2.4,0.1,5.6,0.8,7,2.5c1.5,1.8,2.3,5.5,1.4,7.5
	c-1,2.1-4.3,4.3-6.8,4.5C173.6,242.8,165.7,242.3,157.6,242.3z M139.5,260.3c0.9-6,1.9-11.7,2.8-17.7c-6.3,0-11.8,0-17.7,0
	c-0.9,5.8-1.9,11.6-2.9,17.7C127.8,260.3,133.4,260.3,139.5,260.3z"/>
<path class="st1" d="M262.7,372.4c11.9-7,22.9-6.7,32.3,0.7c9.4,7.4,12.7,20.3,8.7,33.1c-2.6,8.3-7.8,14.9-14.6,19.9
	c-7,5.1-14.4,9.7-21.9,14.1c-2,1.1-5.4,1.5-7.4,0.5c-11.2-5.6-22-11.8-30.3-21.5c-5.6-6.6-8.9-14.1-9-22.8
	c-0.2-11.2,3.9-20.3,13.8-26C243.9,365,253.5,366,262.7,372.4z M235.2,394.4c-0.1,7.2,2,12.5,6.4,16.2c6.2,5.1,12.8,9.6,19.4,14.1
	c0.8,0.6,2.7,0.7,3.4,0.2c6.9-4.9,14.3-9.5,20.4-15.2c5.6-5.2,7.2-12.4,4.5-20c-1.6-4.4-4.9-6.9-9.6-7.5c-4.3-0.5-7.6,1-10,4.7
	c-4.3,6.4-9.5,6.4-13.9,0c-2.6-3.8-5.9-5.5-10.4-4.9c-4.7,0.6-7.7,3.4-9.2,7.8C235.6,391.7,235.3,393.7,235.2,394.4z"/>
<path class="st1" d="M320.9,123.8c6.9-7.9,14.3-16.1,21.3-24.5c5.3-6.5,8.1-14.2,8.8-22.6c0.2-2.9,0.3-6,1.3-8.8
	c2.1-5.9,6.7-9.4,12.9-10s11.3,2,14.4,7.5c8.6,15.3,9.9,31.4,4.2,48c-0.6,1.9-1.4,3.6-2,5.5c0,0.1,0.1,0.3,0.2,0.9
	c10.9,0,22.1,0,33.2,0c14.1,0,21.5,7.5,21.5,21.6c0,22.5,0,45,0,67.5c0,11.2-7.3,19.6-18.4,19.7c-24.9,0.4-49.9,0.4-74.9-0.3
	c-7.6-0.2-15.1-3.5-22.4-5.4c-3.4,0.8-7.2,2.3-10.9,2.4c-11.5,0.3-22.9,0.2-34.5,0.1c-6.3,0-8.8-2.4-8.8-8.6
	c-0.1-28.9-0.1-57.8,0-86.8c0-6.3,2.4-8.8,8.6-8.8c12.3-0.1,24.6-0.1,36.9,0.1C314.7,121.7,317.3,122.9,320.9,123.8z M366.4,72.6
	c-0.4,2.1-0.7,2.6-0.7,3.2c-0.6,15.3-7.2,27.9-17.4,39.1c-8.4,9.2-16.7,18.6-24.7,28c-1.4,1.6-2.4,4-2.4,6
	c-0.2,17.1-0.2,34.1,0,51.2c0,1.8,1.1,4.1,2.5,5.2c7,6,15.3,8.8,24.5,8.8c22.3,0,44.6,0,66.9,0c5.5,0,6.6-1.3,6.6-6.7
	c0-22,0-44,0-66c0-5.9-0.8-6.8-6.9-6.8c-14.5,0-28.9,0-43.4-0.1c-7.6-0.1-10.6-4.8-7.9-11.8c2.1-5.2,4.5-10.2,6.3-15.4
	C373.8,95.8,372.8,84.6,366.4,72.6z M281.6,136.5c0,24.9,0,49.4,0,74c8.2,0,16.2,0,24.3,0c0-24.8,0-49.3,0-74
	C297.8,136.5,290,136.5,281.6,136.5z"/>
</svg>
