<?xml version="1.0" encoding="utf-8"?>
<!-- Generator: Adobe Illustrator 27.2.0, SVG Export Plug-In . SVG Version: 6.00 Build 0)  -->
<svg version="1.1" id="Layer_1" xmlns="http://www.w3.org/2000/svg" xmlns:xlink="http://www.w3.org/1999/xlink" x="0px" y="0px"
	 viewBox="0 0 512 512" style="enable-background:new 0 0 512 512;" xml:space="preserve">
<style type="text/css">
	.st0{fill:#6F6F6F;}
	.st1{fill:#515151;}
	.st2{fill:#D63447;}
	.st3{fill:#515151;stroke:#515151;stroke-width:10.2433;stroke-miterlimit:10;}
	.st4{fill:#D63447;stroke:#D63447;stroke-width:10;stroke-miterlimit:10;}
</style>
<g>
	<path class="st0" d="M693.2,316.2c0-22.1,17.9-40,40-40h-60c-22.1,0-40,17.9-40,40s17.9,40,40,40h60
		C711.1,356.2,693.2,338.2,693.2,316.2z"/>
	<path class="st1" d="M1065.2,221.2c-11,0-20-9-20-20v-28c0-11,9-20,20-20s20,9,20,20v28C1085.2,212.2,1076.3,221.2,1065.2,221.2z
		 M693.2,201.2v-147c0-44.1,35.9-80,80-80h37c11,0,20-9,20-20s-9-20-20-20h-37c-66.2,0-120,53.8-120,120v147c0,11,9,20,20,20
		C684.3,221.2,693.2,212.2,693.2,201.2z M1125.2,316.2c0-33.1-26.9-60-60-60h-392c-33.1,0-60,26.9-60,60s26.9,60,60,60h392
		C1098.3,376.2,1125.2,349.2,1125.2,316.2z M1065.2,296.2c11,0,20,9,20,20s-9,20-20,20h-392c-11,0-20-9-20-20s9-20,20-20H1065.2z"/>
	<path class="st2" d="M880.7,128.2c-2.6,0-5.2-0.5-7.6-1.5c-7.5-3.1-12.3-10.4-12.3-18.5l0-110.8C860.4-38,874-71.4,899-96.6
		c25-25.3,58.3-39.2,93.7-39.2c35.6,0,68.9,13.8,93.8,39c25,25.2,38.5,58.7,38.2,94.3c-0.3,35.1-14.3,68-39.3,92.6
		c-24.9,24.6-58,38.1-93.1,38.1c0,0-0.1,0-0.1,0c-20.6,0-40.4-4.6-58.7-13.7c-12.3-6.1-27.1-3.7-36.8,6l-1.8,1.8
		C891.1,126.1,885.9,128.2,880.7,128.2L880.7,128.2z M919.3,71.1c10.9,0,21.8,2.5,32,7.5c12.7,6.3,26.4,9.5,40.9,9.5
		c0,0,0.1,0,0.1,0c50.5,0,92-40.9,92.5-91.1c0.2-24.9-9.2-48.3-26.6-65.8c-17.3-17.5-40.5-27.1-65.4-27.1
		c-24.6,0-47.8,9.7-65.3,27.3c-17.5,17.6-27,40.9-26.7,65.6c0,0.1,0,0.1,0,0.2l0,76.3C906.8,71.9,913,71.1,919.3,71.1L919.3,71.1z"
		/>
</g>
<g>
	<path class="st3" d="M252.1,6.8c9.4,1.6,18.9,2.8,28.1,4.9C349.1,27.5,404,86.8,414.8,156.6c4.2,27.1,2.4,53.6-5.3,79.9
		c-2.8,9.5-5.7,18.9-8.6,28.4c-1.8,5.8-5.2,8.2-9.8,6.8c-4.3-1.3-5.7-5.2-4.2-10.8c4.5-16.6,10.5-32.9,13-49.7
		c9.4-63.3-11.2-116.4-61.6-155.1C284.8,14.9,225.3,8.7,165,40.5c-46.6,24.5-72.8,65-79.5,117.6c-2.5,19.3,0.4,38.5,1.7,57.8
		c0.3,4.9,1.4,9.8,1,14.5c-0.5,4.5-1.8,9.3-4.1,13.1c-7.4,12.4-15.6,24.4-19.3,38.5c-2.8,10.6-4.4,21.5-6.7,33.2
		c8.9,0,16.3,0,23.7,0c8.3,0,9.9,1.2,11.3,9.3c3.8,21.7,7.5,43.4,11.2,65.2c2.2,13,8.6,18.7,21.7,18.8c22.4,0.1,44.8,0.1,67.2,0.2
		c18.9,0.1,30.8,11.8,30.8,30.6c0,18.8,0,37.6,0,56.5c0,4.5-1.3,8.1-6.1,9.2c-4.8,1.1-8.5-2.7-8.5-8.6c0-18.3,0-36.7,0-55
		c0-13.5-4.5-18-18.1-18.1c-21.7-0.1-43.5-0.2-65.2-0.1c-12.7,0-23.5-4-30.3-15.1c-3-5-4.7-11-5.8-16.8C86.1,372,83,352.4,79.6,333
		c-0.2-0.9-0.6-1.8-1-3c-6.3,0-12.7,0-19,0c-9.8-0.1-15-5.4-14.9-15.1c0.2-24.4,6.6-47.3,20.2-67.5c7-10.4,9-20.5,7.6-32.7
		c-2.1-19.1-4-38.4-1.7-57.7c4.8-40.5,21.7-75.1,51.1-103.3c28.3-27.1,62.1-42.4,101.1-46c0.9-0.1,1.8-0.5,2.7-0.8
		C234.6,6.8,243.4,6.8,252.1,6.8z"/>
	<path class="st3" d="M112.5,183.5c0.3-75.4,64.1-134.9,139.5-129.7c23.3,1.6,44.6,9.1,64,22.2c3.6,2.5,5.5,5.5,3.8,9.9
		c-1.8,4.6-7,5.6-11.8,2.3c-12.4-8.3-25.8-14.1-40.3-17.4c-65.7-14.8-131,31.2-139.2,98c-7.7,62.4,34.8,119,96.8,128.9
		c64.3,10.3,125.4-36.5,132.2-101.4c3.4-31.7-5.1-60-24.7-85c-2.3-3-4.1-5.9-2.5-9.7c2.3-5.2,8.7-5.6,12.8-0.7
		c10.8,13,18.7,27.6,23.8,43.7c23.9,76.5-26,156-105.3,167.8c-71.6,10.7-139.6-41.2-147.8-112.8
		C113.2,194.1,112.9,188.8,112.5,183.5z"/>
	<path class="st4" d="M242.8,124.6c10.2-10.4,22.2-16.3,36.6-15.8c19.8,0.6,34.4,10,42.8,27.8c8.3,17.7,6.3,35.2-6.2,50.1
		c-14,16.8-29.2,32.6-44,48.8c-5,5.5-10,11.1-15.1,16.5c-8.1,8.6-19.3,8.6-27.4,0.1c-6.2-6.6-12.4-13.3-18.5-20
		c-3.6-4-3.8-8.1-0.7-11.2c3.2-3.2,7.6-2.7,11.5,1.3c5.9,6.3,11.8,12.5,17.5,18.9c2.9,3.2,5.1,3,8-0.1
		c18.6-20.6,37.5-40.9,55.9-61.6c12.9-14.4,12-34.4-1.7-47.1c-13.3-12.5-33.2-12-46.9,1.2c-2,1.9-3.9,3.9-5.9,5.8
		c-4.3,4.1-7.9,4.1-12.2-0.1c-2.4-2.2-4.6-4.6-6.9-6.8c-13.3-12.3-33.4-12.2-46.2,0.2c-12.8,12.4-13.7,32-1.9,45.7
		c5.4,6.3,11.2,12.2,16.7,18.3c3.9,4.3,4.1,8.4,0.7,11.5c-3.4,3.1-7.5,2.6-11.4-1.7c-5.9-6.3-11.9-12.5-17.4-19
		c-16.5-19.5-15.1-47.7,3-65.2c18.2-17.7,46.6-18.2,65.7-1.2C240,122.1,241.2,123.2,242.8,124.6z"/>
	<path class="st3" d="M361.5,421.4c0-23.7-0.1-47.3,0.1-71c0-3.2,0.5-6.5,1.4-9.5c4.5-15.5,9.2-31,13.9-46.5
		c1.7-5.6,5.6-7.9,10.1-6.2c4,1.5,5.4,5.3,3.8,10.6c-4.4,14.7-8.9,29.4-13.2,44.2c-0.9,3.2-1.5,6.7-1.5,10
		c-0.1,46.7-0.1,93.4-0.1,140.1c0,7.7-2.2,11-7.1,11.1c-5.1,0.1-7.5-3.5-7.5-11.2C361.5,469.1,361.5,445.3,361.5,421.4z"/>
	<path class="st3" d="M451.3,129.4c-2.7,0-5.5,0.2-8.2,0c-4.2-0.3-7-3.4-7-7.3c0-3.9,2.9-7.1,7-7.2c5.8-0.2,11.6-0.3,17.4,0
		c4.1,0.2,6.4,2.8,6.7,6.9c0.2,3.9-2.6,7.1-6.7,7.4C457.5,129.6,454.4,129.4,451.3,129.4C451.3,129.4,451.3,129.4,451.3,129.4z"/>
	<path class="st3" d="M403.1,27.9c6.5,0.1,9.8,4,8.6,9c-1.4,5.6-3.4,11.1-5.5,16.5c-1.5,3.8-5.6,5.4-9.2,3.8
		c-3.7-1.6-5.4-4.7-4.3-8.7c1.6-5.4,3.2-10.9,5.5-16C399.2,30.3,402,28.9,403.1,27.9z"/>
	<path class="st3" d="M451.6,69.7c-1.5,2.5-2.3,4.7-3.9,6.2c-3.5,3.3-7.3,6.4-11.2,9.3c-3.8,2.9-8.2,2.5-10.8-0.8
		c-2.4-3.1-1.9-7.4,1.5-10.4c3.8-3.3,7.5-6.8,11.7-9.4c2-1.2,5.4-1.5,7.6-0.7C448.6,64.7,449.8,67.5,451.6,69.7z"/>
</g>
</svg>
