<?xml version="1.0" encoding="utf-8"?>
<!-- Generator: Adobe Illustrator 27.2.0, SVG Export Plug-In . SVG Version: 6.00 Build 0)  -->
<svg version="1.1" id="Layer_1" xmlns="http://www.w3.org/2000/svg" xmlns:xlink="http://www.w3.org/1999/xlink" x="0px" y="0px"
	 viewBox="0 0 512 512" style="enable-background:new 0 0 512 512;" xml:space="preserve">
<style type="text/css">
	.st0{fill:#515151;stroke:#515151;stroke-width:12.8738;stroke-miterlimit:10;}
	.st1{fill:#D63447;stroke:#D63447;stroke-width:10;stroke-miterlimit:10;}
</style>
<g>
	<path class="st0" d="M345.7,502.7c-59.7,0-119.5,0-179.2,0c-3-2.6-5.8-5.2-4-9.7c1.7-4.4,5.5-4.9,9.5-4.7c1.6,0.1,3.2,0,4.8,0
		c6.7,0,13.3,0,20,0c0-26.5,0-52.3,0-78.6c-2.3,0-4.4,0-6.4,0c-47.4,0-94.7,0-142.1,0c-2.2,0-4.5,0-6.7-0.2
		C26.4,408.4,14,397.8,10.4,383c-0.3-1.2-0.7-2.4-1.1-3.7c0-113.4,0-226.8,0-340.2c0.2-0.4,0.6-0.8,0.7-1.2
		C14.5,19.5,27.1,9.3,45.8,9.3c140.2,0,280.4,0,420.6,0c21.5,0,36.3,14.8,36.3,36.4c0,109.2,0,218.4,0,327.6c0,3.8-0.5,7.7-1.5,11.4
		c-4.4,15.8-17.6,24.9-35.7,25c-48,0-96,0-144,0c-2,0-4,0-6.4,0c0,7.3,0.1,13.7,0,20.1c-0.1,3.9-2.3,6.3-6.2,6.7
		c-3.9,0.4-6.6-1.3-7.7-5.1c-0.5-1.7-0.5-3.5-0.5-5.2c-0.1-5.4,0-10.8,0-16.1c-30.1,0-59.4,0-88.8,0c0,26.2,0,51.9,0,77.9
		c29.7,0,59.1,0,88.8,0c0-8-0.1-15.7,0-23.4c0.1-5.4,3.3-8.5,7.9-8.1c4,0.3,6.4,3.2,6.4,8.1c0.1,7.8,0,15.6,0,23.8
		c8.8,0,16.9,0.1,25.1,0c4.1,0,7.8,0.3,9.5,4.7C351.4,497.5,348.6,500.1,345.7,502.7z M488.2,319.8c0-2.1,0-3.8,0-5.5
		c0-89.1,0-178.3,0-267.4c0-15.3-7.9-23.1-23.1-23.1c-139.4,0-278.8,0-418.2,0c-15,0-22.9,7.9-22.9,22.9c0,89.3,0,178.6,0,267.9
		c0,1.7,0,3.4,0,5.3C178.9,319.8,333.3,319.8,488.2,319.8z M24.1,334.9c0,14.5-0.3,28.6,0.1,42.7c0.2,6.4,3.8,11.9,9.7,14.6
		c4.2,1.9,9.2,2.8,13.9,2.8c138.8,0.1,277.5,0.1,416.3,0.1c1.3,0,2.6,0,3.9,0c11.9-0.5,20-8.7,20.2-20.7c0.1-7.1,0-14.1,0-21.2
		c0-6.1,0-12.1,0-18.4C333.3,334.9,179,334.9,24.1,334.9z"/>
	<path class="st0" d="M255.8,240c-10.4,13.9-22.7,25-37.6,33.2c-69.2,38.2-155.8-3.2-169.5-81.1c-5.6-31.9,1.2-61.2,20-87.6
		c1.2-1.7,3.1-4,4.9-4.2c2.5-0.2,5.8,0.6,7.6,2.3c2.8,2.6,2.1,6.1-0.1,9.2c-6.8,9.3-12,19.3-15.4,30.3
		c-19.1,61.4,24,125.5,88.1,130.4c38.3,2.9,68.7-11.9,91.5-42.8c1.9-2.5,1.9-4.5,0.5-7.3c-15.7-33.6-15.8-67.2,0-100.8
		c1.5-3.2,1-5.1-0.8-7.7c-30.5-44.3-92.2-56.3-137.7-26.8c-0.4,0.3-0.8,0.5-1.2,0.8c-5.7,3.8-10,3.6-12.6-0.4
		c-2.6-4-1.1-7.8,4.8-11.7c49.6-33.3,116.9-22.6,154.5,24.5c0.9,1.1,1.8,2.3,3,3.8c26.9-33.9,61.7-50.7,105-46.9
		c31.5,2.8,57.6,17,77.8,41.4C478,146,473,215.2,428,257C380.2,301.3,298.6,298.5,255.8,240z M349.5,70.9
		c-55.7,0-101.1,45.5-101,101.2c0.1,55.6,45.9,101.2,101.3,101c55.8-0.2,100.9-45.6,100.9-101.3C450.7,116,405.4,70.9,349.5,70.9z"
		/>
	<path class="st1" d="M174.9,162.8c0,7.1,0.2,14.1,0,21.2c-0.4,15.5-13.8,27.6-30.1,27.5c-15.9-0.1-29-12.5-29.2-27.8
		c-0.2-14.1-0.1-28.2,0-42.4c0-5.6,2.8-8.8,7.4-8.7c4.6,0,7,3.1,7.1,8.9c0,13.5,0.4,27-0.1,40.4c-0.4,9.8,8.4,15.1,15.3,15.1
		c8.9,0,15.4-6.3,15.4-14.9c0-13.5,0-27,0-40.4c0-5.9,2.4-9,6.9-9.1c4.8-0.2,7.5,3.1,7.5,9.1C175,148.7,174.9,155.8,174.9,162.8z"/>
	<path class="st1" d="M209.2,172.1c0,10.1,0,20.2,0,30.3c0,5.6-2.7,9-7.1,9c-4.4,0-7.3-3.4-7.3-8.9c-0.1-20.4-0.1-40.7,0-61.1
		c0-5.8,2.6-8.9,7.2-8.9c4.6,0,7.2,2.9,7.2,8.8C209.2,151.6,209.2,161.9,209.2,172.1z"/>
	<path class="st0" d="M256.2,357.8c4.7,0,9.3-0.1,14,0c4.7,0.2,7.4,3,7.3,7.2c0,4-2.6,6.9-7,7c-9.6,0.2-19.3,0.2-28.9,0
		c-4.6-0.1-7.3-3.3-7.1-7.4c0.2-3.9,2.8-6.6,7.3-6.8C246.6,357.6,251.4,357.8,256.2,357.8z"/>
	<path class="st1" d="M282,163.3c0-7.5-0.1-15.1,0-22.6c0.1-5,2.7-8,7-8.1c4.5-0.1,7.4,2.9,7.4,8.2c0.1,13.8,0,27.6,0,41.4
		c0,8.6,6.1,14.8,14.7,14.9c9.1,0.1,15.5-6.1,15.6-15.1c0-13,0-26,0-39c0-1.6,0-3.2,0.4-4.8c0.9-3.8,3.4-5.8,7.3-5.6
		c3.9,0.2,6.3,2.4,6.6,6.3c0.3,4,0.2,8,0.2,12c0,11.2,0.2,22.5-0.1,33.7c-0.4,14.5-11.9,25.3-27.7,26.7
		c-14.1,1.2-28.9-8.9-30.7-22.2c-1.2-8.5-0.2-17.3-0.2-25.9C282.3,163.3,282.1,163.3,282,163.3z"/>
	<path class="st1" d="M386,157.1c5.1-7.2,9.9-14,14.6-20.8c2.4-3.5,5.6-4.8,9.6-3c4.4,2,5.3,6.8,2.1,11.4
		c-5.7,8.3-11.6,16.6-17.5,25c6.6,9.4,13.2,18.7,19.7,28.1c0.9,1.3,2,2.6,2.4,4.1c1.2,3.6,0.2,6.8-3.3,8.6c-3.6,2-7,1-9.4-2.3
		c-5.1-7-10-14.1-15-21.2c-1-1.4-2.1-2.8-3.4-4.6c-6.1,8.6-11.7,17-17.8,24.9c-1.6,2.1-5,3.9-7.5,3.8c-5.6-0.2-7.8-6.6-4.4-11.6
		c6-8.7,12-17.5,18.3-25.9c2.2-3,2-5-0.1-7.9c-5-6.7-9.7-13.6-14.5-20.4c-3.2-4.6-2.8-8.9,0.8-11.4c3.7-2.5,7.7-1.4,11,3.2
		C376.4,143.5,381,150,386,157.1z"/>
</g>
</svg>
