<?xml version="1.0" encoding="utf-8"?>
<!-- Generator: Adobe Illustrator 27.2.0, SVG Export Plug-In . SVG Version: 6.00 Build 0)  -->
<svg version="1.1" id="Layer_1" xmlns="http://www.w3.org/2000/svg" xmlns:xlink="http://www.w3.org/1999/xlink" x="0px" y="0px"
	 viewBox="0 0 512 512" style="enable-background:new 0 0 512 512;" xml:space="preserve">
<style type="text/css">
	.st0{fill:#515151;}
	.st1{fill:#D63447;}
</style>
<g>
	<path class="st0" d="M443.6,93c6.8,0,13.6,0,20.4,0c23.6,0.1,39,15.5,39,39c0,89.6,0,179.2,0,268.9c0,23.5-15.5,39.2-38.9,39.2
		c-138.8,0-277.6,0-416.4,0C24.6,440.1,9,424.4,9,401.2C9,311.6,9,222,9,132.4c0-23.8,15.4-39.3,39.2-39.3c89.6,0,179.2,0,268.9,0.1
		c4.2,0,7.1-1.1,10-4.1c22.4-22.7,44.9-45.4,67.7-67.7C416.9-0.2,453,7.6,463.6,36.1c5.8,15.7,3.1,30.3-8,42.9
		c-4,4.5-8.9,8.2-13.4,12.2C442.7,91.8,443.1,92.4,443.6,93z M146,156.5c0,73.6,0,146.6,0,219.9c98,0,195.8,0,293.8,0
		c0-73.5,0-146.6,0-220.5c-2.1,0-3.9,0-5.8,0c-16.6,0-33.1,0.1-49.7-0.1c-4,0-6.8,1.1-9.6,3.9c-23.8,24.1-47.7,48-71.7,71.9
		c-7.5,7.5-14,16.6-25.6,19.1c1.8,0,3.6,0,5.5,0c34.9,0,69.8-0.1,104.6,0c21.9,0.1,36.8,21.6,29.5,42c-4.6,12.8-16.1,20.8-30.7,20.8
		c-29.8,0.1-59.6,0-89.5,0c-1.7,0-3.5-0.1-5.2,0.2c-5.6,0.8-9.6,5.5-9.3,10.8c0.3,5.4,4.4,9.7,10.2,9.9c10.5,0.2,20.9-0.1,31.4,0.2
		c6.5,0.2,10.7,4.5,10.8,10.4c0,6-4.2,10.3-10.7,10.4c-11.2,0.2-22.3,0.4-33.5-0.1c-16.2-0.7-29-14.4-29.2-30.6
		c-0.3-18.1,13.7-32.1,32.6-32.2c30.9-0.1,61.7,0,92.6-0.1c6.7,0,11.3-4.4,11.4-10.4c0-6-4.6-10.3-11.3-10.6c-1.7-0.1-3.5,0-5.2,0
		c-56.7,0-113.4,0-170-0.1c-11.6,0-15.6-6.5-11.1-17.2c7.3-17,15.1-33.7,21.8-50.9c4.7-12.2,11.4-22.5,21.2-31
		c5.5-4.7,10.4-10,16.5-16C220.9,156.5,183.6,156.5,146,156.5z M400.6,133.8c0.2,0.4,0.4,0.8,0.6,1.2c1.7,0.1,3.4,0.2,5.1,0.2
		c13.4,0,26.9,0,40.3,0c11.4,0,14.5,3.2,14.5,14.7c0,77.8,0,155.5,0,233.3c0,11.6-3.3,14.9-15,14.9c-102.2,0-204.4,0-306.6,0
		c-11.6,0-14.9-3.3-14.9-14.9c0-77.6,0-155.2,0-232.8c0-12.2,3-15.1,15.1-15.1c45.2,0,90.3,0,135.5,0c2,0,4.8,0.3,6-0.9
		c6.7-6.2,13-12.7,20.3-20c-2.8-0.1-4.1-0.2-5.5-0.2c-82.5,0-165,0-247.4,0c-12.6,0-18.6,6.1-18.6,18.6c0,89.1,0,178.2,0,267.3
		c0,13.2,5.9,19.1,19.2,19.1c65.4,0,130.8,0,196.2,0c72.7,0,145.4,0,218.1,0c12.2,0,18.5-6.2,18.5-18.2c0-89.6,0-179.3,0-268.9
		c0-11.5-6.2-17.8-17.7-17.9c-13.4-0.1-26.9-0.1-40.3,0c-1.6,0-3.6,0.5-4.7,1.5C413,121.5,406.8,127.7,400.6,133.8z M282.9,220.6
		c44.3-44.3,88.7-88.6,132.8-132.7c-1.9-2.1-4-4.5-6.6-7.4c-1.6,1.8-2.8,3.3-4.1,4.7c-34.7,34.6-69.3,69.3-104,103.9
		c-1.2,1.2-2.4,2.5-3.8,3.6c-4.6,3.6-10.3,3.4-14.2-0.6c-3.8-3.9-4-9.7-0.3-14.2c1-1.2,2.2-2.3,3.3-3.4
		c34.8-34.8,69.5-69.6,104.3-104.3c1.3-1.3,3.1-2.2,4.4-3.1c-3.2-3.3-5.4-5.6-7.5-7.8c-44.3,44.5-88.6,88.9-132.6,132.9
		C264,201.6,273.6,211.3,282.9,220.6z M431.8,72.9c3.1-3.1,6.4-5.7,9-9c9.3-11.8,3.7-28.9-10.8-33.1c-10.2-2.9-20.8,2.2-27.2,12.9
		C412.3,53.4,421.9,63,431.8,72.9z M241.6,211.5c-4.5,10.5-9,20.9-14,32.5c12.5-4.1,23.8-7.9,34.9-11.6
		C255.3,225.3,248.6,218.5,241.6,211.5z"/>
	<path class="st1" d="M313.7,40.8C313.6,58.3,299.6,72.1,282,72c-17.4-0.1-31.4-14.4-31.2-31.9C251,23,265.1,9,282.4,9.1
		C299.8,9.1,313.8,23.2,313.7,40.8z M282.3,30c-5.6,0-10.3,4.6-10.5,10.2c-0.2,5.7,4.7,10.7,10.5,10.7c5.7,0,10.3-4.5,10.4-10.2
		C292.8,34.8,288.2,30,282.3,30z"/>
	<path class="st1" d="M129.9,503c-14.5,0-26.3-11.8-26.2-26.3c0-14.4,11.9-26.2,26.3-26.1c14.5,0,26.3,11.8,26.2,26.3
		C156.2,491.3,144.4,503,129.9,503z M135.7,478.1c0-0.8,0.1-1.5,0.1-2.3c-2-1.4-4.1-3.9-6-3.8c-1.7,0.1-4.4,2.8-4.8,4.7
		c-0.7,3.1,1.7,5.6,4.9,5.2C132,481.5,133.8,479.4,135.7,478.1z"/>
	<path class="st1" d="M198.4,51c0-5.7,4.5-10.3,10.1-10.5c5.7-0.1,10.8,4.8,10.8,10.5c0,5.7-5,10.5-10.8,10.4
		C202.8,61.3,198.4,56.7,198.4,51z"/>
	<path class="st1" d="M93,61.4C93,67.4,88.5,72,82.5,72c-5.7,0-10.3-4.6-10.4-10.2C72,56.1,77.1,51,82.7,51.1
		C88.4,51.1,92.9,55.7,93,61.4z"/>
	<path class="st1" d="M398.2,492.8c-0.1-5.9,4.5-10.7,10.4-10.7c5.5,0,10.3,4.7,10.5,10.2c0.1,5.7-4.8,10.7-10.5,10.7
		C402.8,503,398.3,498.5,398.2,492.8z"/>
	<path class="st1" d="M251,450.6c5.7,0.1,10.2,4.6,10.3,10.3c0,5.8-4.8,10.7-10.6,10.6c-5.6-0.1-10.2-4.8-10.3-10.4
		C240.3,455.3,245.1,450.6,251,450.6z"/>
	<path class="st0" d="M408.6,187.8c-3.9,0-7,0.2-10.1,0c-6.7-0.4-11-4.8-10.9-10.9c0.1-5.9,4.3-9.9,11-10.1c6.6-0.2,13.2-0.2,19.8,0
		c6.9,0.2,10.9,4.2,11,11.2c0.2,6.4,0.2,12.9,0,19.3c-0.2,6.7-4.6,11.3-10.5,11.4c-5.9,0-10.2-4.7-10.4-11.3
		C408.6,194.5,408.6,191.5,408.6,187.8z"/>
	<path class="st0" d="M408.6,345.4c0-4.3-0.2-7.6,0-10.8c0.3-5.8,4.5-9.9,9.9-10.2c5.3-0.3,10.4,3.6,10.7,9.3
		c0.5,7.8,0.5,15.7,0,23.5c-0.3,5.4-4.3,8.8-9.8,9c-7.3,0.3-14.6,0.3-21.9,0c-6-0.2-9.8-4.4-9.9-10c-0.1-5.8,3.7-10.2,9.9-10.7
		C400.8,345.2,404.3,345.4,408.6,345.4z"/>
	<path class="st0" d="M177.1,345.3c4.1,0,7.2-0.2,10.3,0c6.4,0.4,10.8,4.8,10.8,10.5c0,5.7-4.4,10.2-10.8,10.4
		c-7,0.2-13.9,0.2-20.9,0c-6.3-0.3-10-4-10.2-10.3c-0.2-7.1-0.2-14.3,0-21.4c0.2-5.8,4.5-9.9,9.9-10.2c5.3-0.2,10,3.6,10.7,9.4
		C177.4,337.3,177.1,341,177.1,345.3z"/>
	<path class="st0" d="M177.3,187.7c0,4.1,0.2,7.3,0,10.4c-0.5,6.4-5,10.8-10.7,10.7c-5.8-0.1-10-4.5-10.2-11
		c-0.2-6.8-0.2-13.6,0-20.4c0.2-6.6,3.9-10.3,10.5-10.6c7-0.2,13.9-0.2,20.9,0c6.1,0.2,10.4,4.6,10.5,10.1c0.1,5.5-4,10.1-10.1,10.7
		C184.8,188,181.3,187.7,177.3,187.7z"/>
	<path class="st1" d="M77.3,208.8c14.7,0,26.2,11.5,26.1,26.2c0,14.6-11.6,26.2-26.2,26.2C62.8,261.2,51,249.4,51,235
		C51,220.5,62.7,208.8,77.3,208.8z M78.6,229.1c-0.8,0-1.6,0-2.4,0c-1.4,2-4,4.2-3.8,6c0.3,1.9,3.1,4.4,5.2,4.8
		c1.3,0.2,4.4-2.9,4.5-4.7C82.2,233.2,79.9,231.1,78.6,229.1z"/>
	<path class="st1" d="M103.4,298c0,14.7-11.5,26.2-26.1,26.2c-14.6,0-26.3-11.6-26.3-26.1c0-14.4,11.8-26.3,26.2-26.3
		C91.7,271.8,103.4,283.4,103.4,298z M75.8,303.9c0.8,0,1.7,0.1,2.5,0.1c1.4-2,4-4.1,3.8-5.9c-0.2-2-2.9-4.7-4.9-5
		c-1.4-0.2-4.6,2.8-4.8,4.5C72.2,299.6,74.5,301.8,75.8,303.9z"/>
	<path class="st1" d="M77.3,366.4c5.1,0,10.1-0.2,15.2,0c6.7,0.3,10.9,4.3,10.9,10.2c0.1,6.2-4.1,10.6-11,10.7
		c-10.1,0.2-20.2,0.2-30.3,0c-6.8-0.2-11.2-4.8-11.1-10.7c0.2-5.8,4.5-9.9,11.1-10.2C67.2,366.2,72.2,366.4,77.3,366.4z"/>
	<path class="st1" d="M77.5,177.3c5.2,0,10.4-0.1,15.6,0c6,0.2,10,4.1,10.2,9.6c0.3,5.8-3.4,10.8-9.4,11c-11.1,0.4-22.2,0.4-33.3,0
		c-5.6-0.2-9.7-5.2-9.6-10.5c0.1-5.6,4.3-9.8,10.4-10.3c0.3,0,0.7,0,1,0C67.4,177.3,72.5,177.3,77.5,177.3
		C77.5,177.3,77.5,177.3,77.5,177.3z"/>
	<path class="st1" d="M76.8,355.7c-5.1,0-10.1,0.2-15.2,0c-6.2-0.2-10.4-4.4-10.6-10c-0.2-5.5,4-10.5,10-10.7
		c10.8-0.4,21.6-0.4,32.4,0c6.2,0.2,10.1,4.8,10,10.6c-0.1,5.8-4.2,9.9-10.4,10.2C87.6,355.9,82.2,355.7,76.8,355.7z"/>
	<path class="st1" d="M77.1,166.7c-4.9,0-9.8,0.1-14.6,0c-6.8-0.2-11.4-4.5-11.4-10.4c-0.1-6,4.4-10.4,11.3-10.5
		c10.1-0.2,20.2-0.2,30.3,0c6.7,0.1,10.8,4.3,10.8,10.3c0,6-4.1,10.3-10.6,10.6C87.6,166.9,82.3,166.7,77.1,166.7
		C77.1,166.7,77.1,166.7,77.1,166.7z"/>
</g>
</svg>
