<?xml version="1.0" encoding="utf-8"?>
<!-- Generator: Adobe Illustrator 27.2.0, SVG Export Plug-In . SVG Version: 6.00 Build 0)  -->
<svg version="1.1" id="Layer_1" xmlns="http://www.w3.org/2000/svg" xmlns:xlink="http://www.w3.org/1999/xlink" x="0px" y="0px"
	 viewBox="0 0 512 512" style="enable-background:new 0 0 512 512;" xml:space="preserve">
<style type="text/css">
	.st0{fill:#515151;stroke:#515151;stroke-width:10;stroke-miterlimit:10;}
	.st1{fill:#D63447;stroke:#D63447;stroke-width:10;stroke-miterlimit:10;}
</style>
<g>
	<path class="st0" d="M7.6,73.7c0.3-1.2,0.7-2.5,0.9-3.7c2-10.1,10.6-17.4,21-17.6c7.3-0.1,14.6,0,21.9,0c109.9,0,219.9,0,329.8,0
		c7.8,0,11.3,2.3,11.2,7.4c-0.1,5-3.5,7.1-11,7.1c-115.8,0-231.5,0-347.3,0c-9.5,0-11.3,1.8-11.3,11.3c0,91,0,182,0,273
		c0,1.8,0,3.5,0,6c2.4,0,4.2,0,6.1,0c38.2,0,76.4,0,114.6,0c1.5,0,2.9,0,4.4,0c4.8,0.2,7.6,2.7,7.7,6.9c0.1,4.3-2.8,7.4-7.7,7.5
		c-6.6,0.2-13.3,0.1-19.9,0.1c-1.7,0-3.5,0-5.5,0c0,24.5,0,48.5,0,73.1c2,0,3.9,0,5.8,0c84,0,168.1,0,252.1,0c1.5,0,2.9-0.1,4.4,0
		c4.6,0.2,7.6,3,7.7,7.1c0.1,4.3-3,7.2-7.8,7.4c-1.5,0.1-2.9,0-4.4,0c-114.5,0-229,0-343.4,0c-19,0-23.8-3.5-29.2-21.4
		C7.6,316.7,7.6,195.2,7.6,73.7z M23,372c-0.1,1.8-0.2,3.1-0.2,4.4c0,19.6,0,39.2,0,58.8c0,7.5,2.4,9.8,9.9,9.8
		c23.3,0,46.6,0,69.9,0c1.6,0,3.1-0.2,4.6-0.2c0-24.5,0-48.5,0-72.7C79.1,372,51.3,372,23,372z"/>
	<path class="st0" d="M491,357.2c0-2.3,0-4,0-5.8c0-91.2,0-182.3,0-273.5c0-9.2-1.9-11-11.1-11c-20.7,0-41.4,0-62.2,0
		c-1.6,0-3.3,0.1-4.8-0.2c-3.5-0.9-5.6-3.3-5.7-7c0-3.8,2.2-6.3,6-7.2c1.2-0.3,2.6-0.1,3.9-0.1c21.7,0,43.4,0.3,65.1-0.1
		c12.1-0.3,23.3,9.7,23.2,23c-0.4,120.6-0.3,241.2,0,361.9c0,11.9-10,22.6-22.2,22.5c-22.3-0.2-44.7-0.1-67-0.1
		c-5.6,0-9-2.9-8.9-7.4c0.1-4.4,3.4-7.2,9.1-7.2c21.5,0,43.1,0,64.6,0c7.8,0,10.1-2.2,10.1-10.1c0-19.4,0-38.9,0-58.3
		c0-1.4-0.2-2.8-0.3-4.8c-2.3,0-4.4,0-6.4,0c-100.5,0-201.1,0-301.6,0c-2.1,0-4.3,0.1-6.3-0.3c-4-0.9-6.1-3.6-5.8-7.7
		c0.4-3.9,2.7-6.1,6.7-6.4c1.8-0.1,3.6-0.1,5.3-0.1c100.5,0,201.1,0,301.6,0C486.3,357.2,488.3,357.2,491,357.2z"/>
	<path class="st1" d="M227.2,229.9c0-12.8-0.2-24.8,0.1-36.7c0.1-3.2,1.2-6.7,3-9.3c5.6-8.5,11.8-16.6,17.7-24.9
		c0.9-1.3,1.7-2.6,3.1-4.7c-10,0-19.1-0.1-28.2,0.1c-1.1,0-2.4,1.4-3.3,2.5c-5,5.7-9.9,11.6-14.8,17.4c-3.6,4.1-8.1,4.9-11.4,2
		c-3.2-2.8-3.2-7.2,0.1-11.2c6.1-7.3,12.2-14.7,18.7-21.7c1.7-1.9,4.9-3.4,7.5-3.4c15-0.3,30.1-0.3,45.2,0c2.5,0,5.3,1.4,7.3,3
		c10.2,8.2,20.1,16.8,30.3,25.1c1.6,1.3,4,2.1,6,2.2c7.8,0.3,15.5,0.1,23.3,0.1c6,0,9.3,2.8,9.2,7.5c-0.1,4.5-3.2,7-9.1,7.1
		c-9.1,0-18.1,0.3-27.2-0.1c-3-0.1-6.4-1.3-8.7-3.2c-9.6-7.6-18.9-15.6-28.9-23.9c-7.7,10.7-15.2,21.2-22.7,31.6
		c4.5,4.6,8.7,9.1,13.1,13.3c8.4,8.3,17.2,16.3,25.4,24.7c2.1,2.2,3.8,5.8,3.9,8.8c0.4,13.1,0.2,26.2,0.2,39.3
		c0,5.8-2.7,9.1-7.1,9.2c-4.5,0.1-7.5-3.4-7.5-9.3c-0.1-11.5,0-23-0.1-34.5c0-1.7-0.3-3.8-1.3-4.9c-9.3-9.2-18.8-18.2-29.1-28.2
		c0,8.9,0,16.7,0,24.6c0,10.8-1.6,12.4-12.3,12.4c-15.2,0-30.4,0-45.7,0c-1.5,0-2.9,0.1-4.4-0.1c-4.3-0.6-6.9-3.6-6.7-7.5
		c0.1-4,2.8-6.8,7.3-6.9c7.4-0.2,14.9-0.1,22.3-0.1C210.5,229.9,218.5,229.9,227.2,229.9z"/>
	<path class="st0" d="M378.9,415.7c-25.3,0-50.5,0.1-75.8-0.1c-3.4,0-5.3,0.6-7.1,4c-4.4,8.4-11.8,12.7-21.4,12.6
		c-9.4-0.1-16.5-4.7-20.7-12.9c-1.6-3-3.2-3.7-6.3-3.7c-28.2,0.1-56.3,0.1-84.5,0.1c-1.5,0-2.9,0.1-4.4-0.1c-4.2-0.5-7-3.6-6.9-7.4
		c0.1-3.9,3-6.7,7.2-7c1.5-0.1,2.9,0,4.4,0c27.9,0,55.7-0.1,83.6,0.1c3.4,0,5.3-0.8,7-4c4.4-8.4,11.7-12.8,21.3-12.7
		c9.4,0.1,16.5,4.5,20.8,12.8c1.6,3.2,3.4,3.9,6.7,3.9c50.2-0.1,100.4-0.1,150.6-0.1c1.6,0,3.2-0.1,4.9,0.1c4.3,0.3,7.1,3.1,7.1,7.1
		c0.1,4-2.6,6.9-6.8,7.4c-1.4,0.2-2.9,0.1-4.4,0.1C429.1,415.7,404,415.7,378.9,415.7z M275,399.1c-5.2,0-9.2,4-9.3,9.2
		c0,5.1,4,9.3,9.1,9.5c5.2,0.1,9.7-4.3,9.6-9.5C284.4,403.1,280.2,399.1,275,399.1z"/>
	<path class="st1" d="M75,279.4c2.1,1.2,4.2,1.9,5.6,3.3c6.6,6.4,13.2,12.9,19.6,19.5c3.8,3.9,3.8,7.5-0.1,11.5
		c-6.3,6.5-12.7,12.9-19.2,19.2c-4.1,4-7.8,3.9-11.8-0.1c-6.5-6.3-12.9-12.7-19.2-19.2c-3.7-3.8-3.7-7.7,0.1-11.5
		c6.3-6.5,12.7-12.9,19.2-19.2C70.7,281.5,72.9,280.7,75,279.4z M65.5,307.6c3.3,3.6,6.4,7,8.8,9.6c3.6-3.3,7.1-6.4,10.1-9.1
		c-3.2-3.4-6.3-6.7-9.4-9.9C71.7,301.4,68.5,304.6,65.5,307.6z"/>
	<path class="st1" d="M467.1,307.9c-1.1,2-1.8,4.1-3.1,5.5c-6.4,6.6-12.9,13.1-19.5,19.6c-3.9,3.8-7.6,3.8-11.5,0
		c-6.6-6.4-13.1-12.9-19.5-19.5c-3.6-3.7-3.6-7.4,0-11.1c6.5-6.7,13.2-13.3,19.9-19.9c3.5-3.4,7.3-3.4,10.7-0.1
		c6.9,6.6,13.6,13.4,20.2,20.2C465.5,304,466.1,306,467.1,307.9z M448.4,309.1c-3.7-4.2-6.7-7.6-9.1-10.4c-3.6,3.2-7,6.2-10.4,9.3
		c3.4,3.4,6.5,6.6,9.8,9.9c0.7-0.5,1.2-0.8,1.7-1.2C443.2,314,446,311.3,448.4,309.1z"/>
	<path class="st1" d="M285.5,139.1c-14,0-25.3-11.3-25.2-25.3c0.1-13.7,11.3-25,25-25.1c13.8-0.2,25.4,11.3,25.5,25.2
		C310.8,127.9,299.6,139.2,285.5,139.1z M285.6,124.5c5.8,0,10.5-4.6,10.6-10.3c0.1-5.9-4.8-10.8-10.7-10.8
		c-5.7,0-10.5,4.7-10.6,10.4C274.8,119.7,279.6,124.5,285.6,124.5z"/>
	<path class="st1" d="M120.8,300.6c5.5,0.1,8.7,2.9,8.6,7.6c-0.1,4.6-3.5,7.2-9,7.1c-5.4-0.1-8.8-3.1-8.7-7.5
		C111.8,303.2,115.3,300.5,120.8,300.6z"/>
	<path class="st1" d="M211.4,315.3c-5.5,0-8.8-2.8-8.8-7.4s3.3-7.3,8.9-7.3c5.4,0,8.9,2.9,8.9,7.4
		C220.3,312.4,216.8,315.3,211.4,315.3z"/>
	<path class="st1" d="M241.7,315.3c-5.6,0-8.8-2.7-8.8-7.4c0-4.6,3.2-7.3,8.8-7.3c5.5,0,8.8,2.8,8.8,7.4
		C250.6,312.5,247.2,315.3,241.7,315.3z"/>
	<path class="st1" d="M272.1,315.3c-5.5,0-8.9-2.7-8.9-7.3c-0.1-4.6,3.3-7.4,8.8-7.4c5.6,0,8.8,2.6,8.9,7.3
		C280.9,312.5,277.7,315.2,272.1,315.3z"/>
	<path class="st1" d="M302.3,315.3c-5.4,0-8.9-2.8-9-7.3c0-4.5,3.5-7.4,8.9-7.4c5.5,0,8.9,2.7,8.9,7.3
		C311.2,312.5,307.9,315.2,302.3,315.3z"/>
	<path class="st1" d="M393.2,315.3c-5.5,0-8.8-2.8-8.8-7.4s3.3-7.3,8.9-7.3c5.4,0,8.9,2.9,8.9,7.4
		C402.1,312.5,398.6,315.3,393.2,315.3z"/>
	<path class="st1" d="M150.7,300.6c5.5-0.1,9,2.7,9,7.2c0.1,4.5-3.4,7.4-8.8,7.5c-5.4,0-9-2.8-9.1-7.2
		C141.8,303.7,145.4,300.6,150.7,300.6z"/>
	<path class="st1" d="M180.9,315.3c-5.4-0.1-8.9-3.1-8.7-7.6c0.2-4.4,3.7-7.2,9.2-7.1c5.3,0.1,8.9,3.2,8.7,7.6
		C189.9,312.6,186.4,315.3,180.9,315.3z"/>
	<path class="st1" d="M332.5,315.3c-5.4,0-8.9-3-8.8-7.5c0.1-4.4,3.7-7.3,9.1-7.2c5.4,0,8.9,3,8.8,7.5
		C341.5,312.5,337.9,315.3,332.5,315.3z"/>
	<path class="st1" d="M363,315.3c-5.5,0-8.9-2.8-9-7.2c-0.1-4.5,3.4-7.4,8.8-7.4s9,2.8,9.1,7.2C371.9,312.2,368.4,315.2,363,315.3z"
		/>
	<path class="st0" d="M42.6,408.1c0-4.2-0.1-8.4,0-12.6c0.2-4.3,2.9-7.2,6.8-7.3c4.1-0.2,7.5,2.7,7.6,7.1c0.2,8.7,0.2,17.5,0,26.2
		c-0.1,4.5-3.5,7.3-7.6,7.1c-3.9-0.2-6.7-3-6.8-7.3C42.5,416.8,42.6,412.4,42.6,408.1z"/>
	<path class="st0" d="M86.5,408.4c0,4.2,0.1,8.4,0,12.6c-0.2,4.6-3,7.5-7.1,7.5s-7.2-2.8-7.3-7.4c-0.2-8.6-0.2-17.1,0-25.7
		c0.1-4.5,3.4-7.4,7.5-7.3s6.9,3,7,7.7C86.6,400,86.5,404.2,86.5,408.4z"/>
</g>
</svg>
