<?xml version="1.0" encoding="utf-8"?>
<!-- Generator: Adobe Illustrator 27.2.0, SVG Export Plug-In . SVG Version: 6.00 Build 0)  -->
<svg version="1.1" id="Layer_1" xmlns="http://www.w3.org/2000/svg" xmlns:xlink="http://www.w3.org/1999/xlink" x="0px" y="0px"
	 viewBox="0 0 512 512" style="enable-background:new 0 0 512 512;" xml:space="preserve">
<style type="text/css">
	.st0{fill:#515151;stroke:#515151;stroke-width:10.5643;stroke-miterlimit:10;}
	.st1{fill:#D63447;stroke:#D63447;stroke-width:10;stroke-miterlimit:10;}
</style>
<g>
	<path class="st0" d="M118.8,506.9c-4.3-1-8.6-1.8-12.8-3C74.9,495,52.2,466.1,52.2,434c-0.2-88-0.1-176-0.1-264.1
		c0-5.6,3-9,7.5-8.9s7.2,3.5,7.2,9.3c0,41.8,0,83.6,0,125.4c0,44.6,0,89.2,0,133.7c0,36.7,25.9,62.7,62.5,62.7
		c55.7,0,111.4,0,167.1,0c36.5,0,62.6-26.1,62.6-62.7c0-38.9,0-77.7,0-116.6c0-1.6-0.2-3.3,0.1-4.9c0.8-3.8,3.1-6.1,7.2-6.1
		c4,0,6.4,2.2,7.2,6c0.3,1.6,0.2,3.3,0.2,4.9c0,38.7-0.5,77.4,0.1,116.1c0.7,42.6-30.9,73.3-65,77.2c-0.6,0.1-1.2,0.5-1.8,0.7
		C244.2,506.9,181.5,506.9,118.8,506.9z"/>
	<path class="st0" d="M277.8,287.9c3.2-3.5,6.5-6.7,9.4-10.2c3.4-4.1,7.5-5.5,12.9-5.4c39.2,0.2,78.4-0.2,117.6,0.3
		c16.9,0.2,29-11.2,27.7-28c-0.3-3.6-0.1-7.2,0-10.8c0.2-4.9,3.1-8.1,7.3-8.1c4.2,0,7.3,3.1,7.3,8c0,7,0.5,14.2-0.6,21
		c-3.3,19.9-19.2,32.4-40.5,32.4c-38,0.1-76.1,0.1-114.1-0.1c-4.2,0-7.5,0.9-10.2,4.2c-2.4,2.9-5.2,5.5-8,8
		c-5.8,5.2-13.5,5.9-18.3-0.1c-7.9-9.8-17.3-12.4-29.6-12.4c-22.2-0.1-37.5-17-37.6-39.3c-0.2-28.6-0.2-57.2,0-85.7
		c0.1-23.3,16.7-39.8,39.9-39.9c59.8-0.1,119.5-0.1,179.3,0c23.2,0,39.7,16.7,39.8,39.9c0.1,12.7,0,25.5,0,38.2c0,5.7-2.9,9.1-7.4,9
		s-7.3-3.5-7.3-9.2c-0.1-12.4,0-24.8,0-37.2c0-16.1-9.9-26-25.9-26c-59.3,0-118.5,0-177.8,0c-16,0-25.9,9.9-25.9,26
		c-0.1,27.9-0.1,55.8,0,83.8c0,16.3,9.9,27,26.3,25.8c14.2-1,25.5,2.3,33.8,14.2C276,286.6,276.5,286.9,277.8,287.9z"/>
	<path class="st1" d="M137.6,344.3c-5.3-0.8-10.3-1.5-15.3-2.3c-6.3-1-8.1-3-8.6-9.2c-0.4-4.9-0.8-9.8-1.2-14.6
		c-0.3-3.5,0.7-6.3,3.6-8.5c10-7.6,19.7-15.6,29.9-22.9c2.3-1.6,6.2-2.1,9-1.5c5.1,1,9.9,3.3,14.8,4.9c4.9,1.6,6.6,4.8,6,9.8
		c-0.6,5.1-1,10.3-1.5,16.2c2.8-0.4,5.2-0.8,7.5-1c12.4-1.2,24.1,0.8,34.8,7.3c3,1.8,5,1.5,7.8-0.2c19.7-11.3,45-9.5,62.7,4.2
		c18.8,14.5,26.8,38,20.6,60.7c-6,22.4-24.5,38.5-47.5,41.8c-13.1,1.8-25.2-1-36.8-7.2c-1.5-0.8-4.1-1.1-5.5-0.4
		c-23.5,12.8-49.7,10.3-68.2-6.6c-19.1-17.5-23.9-42.9-12.9-68.1C137.3,346,137.3,345.5,137.6,344.3z M232.6,409.1
		c15.6,10.3,39.5,5.9,52.6-9.5c14-16.5,13.3-41-1.4-56.7c-13.4-14.3-37.4-18-51.1-7.9C250.3,359.7,250.3,384.4,232.6,409.1z
		 M208.7,334.8c-18.6-10.7-43.1-4.9-55.4,13c-12.6,18.2-8.9,43,8.2,57.3c13.5,11.3,36.1,12.6,46.8,3.5
		C191.2,386.6,190.7,357.8,208.7,334.8z M220.5,399.2c14-12.3,13.9-42.5-0.2-54.6C206.5,359.9,206.6,385.8,220.5,399.2z
		 M160.7,304.4c-0.2-0.4-0.8-2.1-1.7-2.3c-2.5-0.7-5.9-1.9-7.5-0.8c-7.8,5.3-15.3,11.1-22.4,17.3c-1.5,1.3-1.3,5-1,7.5
		c0.1,0.9,2.5,2,4,2.4c3,0.7,6.1,1,9.1,1.5c5.3,0.9,14.4-2.9,17.2-7.2c0.4-0.6,0.5-1.5,0.6-2.3C159.6,315.5,160.1,310.4,160.7,304.4
		z"/>
	<path class="st0" d="M81.5,216.2c0-44.4,0-88.8,0-133.3c0-29.3,19.2-48.4,48.5-48.4c8.5,0,17,0.1,25.5,0c5.8-0.1,10.7,1.7,14.1,6.4
		c6.1,8.5,14.2,11.6,24.5,11.3c13.7-0.5,27.4-0.2,41.2-0.1c7.7,0.1,14.2-2.5,18.7-8.8c4.9-6.7,11.1-9.4,19.4-8.9
		c11.1,0.7,22.3-0.3,33.2,1.1c21,2.8,36.8,21.4,37.6,42.7c0.2,6.7,0.1,13.4,0.1,20.1c-0.1,5.3-2.9,8.6-7.3,8.7
		c-4.4,0-7.3-3.3-7.4-8.5c-0.1-6,0.1-12.1,0-18.1c-0.3-17.7-13.4-30.8-31.1-31.1c-8.8-0.1-17.6-0.2-26.5,0.1c-2,0.1-4.5,1.1-5.7,2.6
		c-8.5,10.6-19.5,15.2-33,14.9c-14-0.3-28.1-0.2-42.1,0c-12.6,0.2-23-4.3-30.8-14.2c-2-2.6-4.2-3.5-7.5-3.4c-8,0.2-16,0-24,0.1
		c-19.6,0.1-32.6,13-32.6,32.5c0,90,0,180,0,270c0,2,0.2,4-0.2,5.9c-0.8,3.8-3.4,6.1-7.3,5.9c-4.1-0.2-6.6-2.5-7.1-6.7
		c-0.2-1.6-0.1-3.3-0.1-4.9C81.5,306.7,81.5,261.5,81.5,216.2z"/>
	<path class="st0" d="M212.8,5.1c28.1,0,56.2,0,84.2,0c43.7,0.1,76.4,32.8,76.5,76.5c0,5.4,0,10.8,0,16.2c0,5.7-2.8,9.1-7.3,9.2
		s-7.3-3.3-7.5-9c-0.3-9.3,0.2-18.7-1-27.8C354.1,42.6,329,20.2,301,20c-58.8-0.4-117.6-0.4-176.3,0c-31.1,0.2-57.4,27-57.9,58.2
		c-0.3,18.3-0.1,36.6-0.1,54.9c0,1.5,0.1,3-0.1,4.4c-0.6,4.2-3.7,6.9-7.6,6.8c-3.9-0.2-6.8-3.1-7-7.4c-0.2-3.9-0.1-7.8-0.1-11.8
		c0-15-0.1-30,0-45.1C52.2,38.1,85.1,5.2,127,5.1C155.7,5,184.3,5.1,212.8,5.1z"/>
	<path class="st0" d="M212.9,477.5c-27.9,0-55.8,0-83.8,0s-47.5-19.4-47.6-47.3c0-13.6,0-27.1,0-40.7c0-5.8,2.6-9,7.2-9.1
		c4.6,0,7.4,3.2,7.4,9c0.1,13.7,0,27.4,0,41.2c0.1,19.2,13.1,32.2,32.4,32.2c56.2,0,112.3,0.1,168.5,0c19.2,0,32.3-13.1,32.3-32.4
		c0.1-39,0-78.1,0-117.1c0-1.6-0.1-3.3,0.1-4.9c0.6-3.8,2.8-6.2,6.8-6.4c4.3-0.2,6.7,2.1,7.6,6.1c0.3,1.6,0.2,3.3,0.2,4.9
		c0,38.7,0,77.4,0,116.1c0,29.2-19.3,48.4-48.5,48.4C268.1,477.5,240.5,477.5,212.9,477.5z"/>
	<path class="st1" d="M313.2,196.3c0,7.8-3,14.3-8.9,19.3c-6.7,5.7-13.5,11.3-20.5,16.7c-6.4,5-13.4,4.9-19.7-0.1
		c-6.6-5.3-13.2-10.7-19.6-16.2c-10-8.5-12.2-22.3-5.4-33.1c6.8-10.9,20-15,32.1-10.2c1.9,0.8,4.7,0.6,6.6-0.1
		C294.9,165.8,313.2,178,313.2,196.3z M274,221.4c7.1-5.8,14.1-11.3,20.7-17c4.5-3.9,5-10.1,1.6-14.5c-3.5-4.7-9.8-6.2-14.7-2.4
		c-5.3,4-9.6,4-14.9-0.1c-4.7-3.6-10.9-2.2-14.4,2.2c-3.6,4.6-3.3,10.9,1.3,14.9C260.1,210.1,266.8,215.5,274,221.4z"/>
	<path class="st1" d="M378.7,196.1c13.4,0,26.7,0,40.1,0c5.5,0,8.6,2.7,8.7,7.1c0.1,4.6-3.2,7.5-8.9,7.5c-26.7,0.1-53.5,0-80.2,0
		c-3.9,0-7.7-1.1-8.3-5.1c-0.4-2.5,1-5.8,2.6-8.1c0.9-1.3,3.8-1.4,5.9-1.4C351.9,196,365.3,196.1,378.7,196.1z"/>
	<path class="st1" d="M378.2,245.7c-12.2,0-24.4,0-36.7,0c-1.3,0-2.6,0-3.9,0c-5.1-0.3-8.1-2.9-8.2-7.2c-0.1-4.5,3-7.3,8.4-7.5
		c5-0.2,10.1,0,15.2,0c21,0,42,0,63.1,0c1.6,0,3.3-0.1,4.9,0.2c4.1,0.7,6.5,3.1,6.4,7.3s-2.5,6.6-6.7,7.1c-1.6,0.2-3.3,0.2-4.9,0.2
		C403.3,245.7,390.8,245.7,378.2,245.7z"/>
	<path class="st1" d="M378.7,175.7c-13.4,0-26.7,0-40.1,0c-5.8,0-9-2.7-9.1-7.2c0-4.6,3.3-7.4,8.9-7.4c26.7,0,53.5,0,80.2,0
		c5.6,0,9,3,8.8,7.5c-0.1,4.4-3.3,7.1-8.7,7.1C405.4,175.7,392,175.7,378.7,175.7z"/>
</g>
</svg>
